<?xml version="1.0" encoding="UTF-8"?>
<svg version="1.1" xmlns="http://www.w3.org/2000/svg" width="600" height="240">
<path d="M0 0 C0.33 24.09 0.66 48.18 1 73 C6.83603192 64.82955531 12.64663052 56.69311277 18.2265625 48.35546875 C18.66484375 47.70964844 19.103125 47.06382813 19.5546875 46.3984375 C19.93093262 45.83817871 20.30717773 45.27791992 20.69482422 44.70068359 C24.93768677 39.17210511 24.93768677 39.17210511 28.90087891 38.5300293 C29.99835449 38.54461182 31.09583008 38.55919434 32.2265625 38.57421875 C33.4228125 38.58259766 34.6190625 38.59097656 35.8515625 38.59960938 C37.71941406 38.64311523 37.71941406 38.64311523 39.625 38.6875 C41.50445312 38.70200195 41.50445312 38.70200195 43.421875 38.71679688 C52.66312811 38.83156406 52.66312811 38.83156406 55 40 C53.65608349 43.68888432 51.99534214 46.72011977 49.76953125 49.94921875 C48.81143555 51.34624023 48.81143555 51.34624023 47.83398438 52.77148438 C47.16689453 53.73376953 46.49980469 54.69605469 45.8125 55.6875 C44.84086914 57.10192383 44.84086914 57.10192383 43.84960938 58.54492188 C42.8818457 59.95161133 42.8818457 59.95161133 41.89453125 61.38671875 C41.25596191 62.3204834 40.61739258 63.25424805 39.95947266 64.21630859 C38.6442832 66.08471007 37.28319254 67.92156241 35.88037109 69.72509766 C32.03883007 74.36753477 32.03883007 74.36753477 31.2265625 80.0234375 C31.81179688 81.00570312 32.39703125 81.98796875 33 83 C33.37092773 83.69383789 33.74185547 84.38767578 34.12402344 85.10253906 C35.4879957 87.64339467 36.92334254 90.13325643 38.375 92.625 C38.90013184 93.53564209 39.42526367 94.44628418 39.96630859 95.38452148 C44.28255422 102.84014635 48.69748209 110.23650297 53.16552734 117.60205078 C53.63941895 118.38435059 54.11331055 119.16665039 54.6015625 119.97265625 C55.01744629 120.65593994 55.43333008 121.33922363 55.86181641 122.04321289 C59 127.43843844 59 127.43843844 59 131 C54.83773496 131.22359275 50.67869784 131.38625784 46.51220703 131.49438477 C45.09752509 131.5394723 43.68325869 131.60076961 42.27001953 131.67895508 C30.62045044 132.30699739 30.62045044 132.30699739 26.90234375 129.30810547 C25.30234858 126.9481126 24.15307271 124.60576851 23 122 C22.06162354 120.36643889 21.10824077 118.74141331 20.140625 117.125 C19.17408558 115.41836094 18.21062708 113.70997396 17.25 112 C16.20923675 110.16224849 15.16755459 108.32501712 14.125 106.48828125 C13.60679687 105.5751416 13.08859375 104.66200195 12.5546875 103.72119141 C8.77499843 97.10554845 4.87888957 90.55774768 1 84 C0.95047477 89.46263311 0.91422104 94.92513482 0.89013672 100.38793945 C0.88009385 102.24538449 0.86645696 104.10281379 0.84912109 105.96020508 C0.82479739 108.63366591 0.81349967 111.30691726 0.8046875 113.98046875 C0.79436493 114.80773972 0.78404236 115.63501068 0.77340698 116.48735046 C0.77256333 120.84591768 1.13215958 123.98409693 3 128 C3 128.99 3 129.98 3 131 C-8.22 131 -19.44 131 -31 131 C-31 128 -31 128 -30.01716614 125.39891052 C-28.71687965 121.05393947 -28.71242896 117.12653286 -28.7253418 112.61743164 C-28.72023087 111.69145676 -28.71511993 110.76548187 -28.70985413 109.81144714 C-28.69599297 106.76095047 -28.69691222 103.7106806 -28.69921875 100.66015625 C-28.69533008 98.5331565 -28.69099506 96.40615752 -28.68623352 94.27915955 C-28.67877891 89.82483399 -28.67905724 85.37058771 -28.68432617 80.91625977 C-28.69012151 75.21557493 -28.67318438 69.51521492 -28.6499815 63.81458378 C-28.63523183 59.42303071 -28.63437412 55.03155567 -28.63749123 50.63998222 C-28.6369787 48.53849074 -28.63175377 46.43699482 -28.62167931 44.33552742 C-28.60930771 41.39412596 -28.61611098 38.45335468 -28.62768555 35.51196289 C-28.62004181 34.64888519 -28.61239807 33.7858075 -28.60452271 32.89657593 C-28.65111977 27.52419863 -29.45605356 23.76139229 -32 19 C-33.95379539 17.36952246 -33.95379539 17.36952246 -36.1875 16.5625 C-36.90292969 16.25441406 -37.61835938 15.94632813 -38.35546875 15.62890625 C-39.16951172 15.31759766 -39.16951172 15.31759766 -40 15 C-40 14.34 -40 13.68 -40 13 C-39.35417969 12.9484375 -38.70835937 12.896875 -38.04296875 12.84375 C-26.50839063 11.45518246 -15.86521329 6.55944662 -5.6171875 1.24609375 C-3 0 -3 0 0 0 Z " fill="#FEFEFE" transform="translate(318,39)"/>
<path d="M0 0 C31.02 0 62.04 0 94 0 C94 10.56 94 21.12 94 32 C92.68 31.34 91.36 30.68 90 30 C88.69602043 29.45818741 87.38325386 28.93703265 86.0625 28.4375 C85.41410156 28.18871094 84.76570313 27.93992187 84.09765625 27.68359375 C79.21256748 26.09161882 74.28902541 25.73529239 69.1875 25.4375 C68.49462891 25.39431641 67.80175781 25.35113281 67.08789062 25.30664062 C65.39211314 25.20138547 63.69607948 25.10027137 62 25 C62.08441766 36.63102937 62.17930682 48.26192182 62.28752708 59.89275551 C62.33745107 65.29354921 62.38378158 70.69432372 62.421875 76.09521484 C62.45877686 81.30836216 62.50515037 86.5213474 62.55806351 91.73435593 C62.57658137 93.72220387 62.59169894 95.71008652 62.60334396 97.6979866 C62.62025093 100.48453582 62.64929695 103.27071598 62.68115234 106.05712891 C62.68331253 106.87712372 62.68547272 107.69711853 62.68769836 108.54196167 C62.75397559 113.08683949 63.30165176 116.71806256 65 121 C65.33 121.99 65.66 122.98 66 124 C65 125 65 125 61.58178711 125.11352539 C60.06363012 125.11336628 58.54546771 125.10767226 57.02734375 125.09765625 C56.22970108 125.0962413 55.43205841 125.09482635 54.61024475 125.09336853 C52.05262565 125.08775316 49.49509282 125.07519812 46.9375 125.0625 C45.20768355 125.05748698 43.47786574 125.05292373 41.74804688 125.04882812 C37.49866447 125.03777875 33.24934688 125.02050386 29 125 C28 123 28 123 28.54060364 121.32827759 C28.82602524 120.60586884 29.11144684 119.88346008 29.40551758 119.13916016 C32.07971143 110.61525642 31.48298232 101.6167526 31.51171875 92.7734375 C31.52858551 90.81473682 31.54673841 88.85604683 31.56611633 86.89736938 C31.6134056 81.77157941 31.64335088 76.6458328 31.66955566 71.51989746 C31.69946803 66.2775008 31.74596145 61.03525327 31.79101562 55.79296875 C31.87680872 45.52872418 31.9442602 35.26444872 32 25 C29.606526 25.14509329 27.2134007 25.29409094 24.8203125 25.4453125 C23.81158081 25.50585815 23.81158081 25.50585815 22.7824707 25.56762695 C15.30792997 26.04647184 9.33570908 26.90042354 3 31 C2.01 31 1.02 31 0 31 C0 20.77 0 10.54 0 0 Z " fill="#FEFEFE" transform="translate(96,45)"/>
<path d="M0 0 C7.49455686 6.97873716 11.61938841 15.87865021 12.03710938 26.09790039 C12.06476433 27.61851808 12.08329939 29.13932301 12.09375 30.66015625 C12.1083728 31.47568466 12.12299561 32.29121307 12.13806152 33.13145447 C12.19969883 36.5836602 12.23981171 40.03603314 12.28173828 43.48852539 C12.31567057 46.02508362 12.36071825 48.56128388 12.40625 51.09765625 C12.41416565 52.25262352 12.41416565 52.25262352 12.42224121 53.43092346 C12.50978727 58.22410324 12.97594637 62.32956423 14.75 66.8125 C18.26400668 68.35336322 18.26400668 68.35336322 21.75 68.8125 C18.38603174 72.42245271 14.38855414 74.5318849 10.125 76.9375 C9.35542969 77.39253906 8.58585937 77.84757812 7.79296875 78.31640625 C2.68658118 81.19890643 -2.2686956 83.29091337 -8.25 82.8125 C-12.56822655 79.7805537 -13.90513611 76.79369114 -15.25 71.8125 C-15.60656891 68.85822066 -15.75409593 65.90972508 -15.875 62.9375 C-15.93300781 61.761875 -15.93300781 61.761875 -15.9921875 60.5625 C-16.08566622 58.64618633 -16.16888495 56.72937681 -16.25 54.8125 C-16.63220703 55.44752441 -17.01441406 56.08254883 -17.40820312 56.73681641 C-19.17260092 59.64722349 -20.96096221 62.54217966 -22.75 65.4375 C-23.35070312 66.43652344 -23.95140625 67.43554688 -24.5703125 68.46484375 C-28.26960804 74.40732913 -31.8268344 79.65054431 -38.25 82.8125 C-44.39251019 83.98190317 -51.68031436 84.14122706 -57.375 81.1875 C-64.1007226 75.63146829 -67.32513716 70.24142465 -68.5703125 61.5859375 C-69.0200487 53.10091446 -65.37963071 45.23083983 -60.140625 38.6953125 C-51.5581739 30.14832608 -40.94688287 26.58321115 -29.13671875 25.796875 C-25.18731591 25.81825201 -21.99358858 26.5886345 -18.25 27.8125 C-18.7561314 23.38385029 -20.09889946 20.96360054 -23.25 17.8125 C-29.23895022 14.19417591 -35.37165016 13.86858414 -42.25 14.8125 C-47.83601137 16.73818381 -52.30469375 19.37403047 -56.25 23.8125 C-56.91 23.8125 -57.57 23.8125 -58.25 23.8125 C-58.61351562 23.12285156 -58.97703125 22.43320313 -59.3515625 21.72265625 C-62.67433736 15.51162323 -66.22499607 9.59309074 -70.25 3.8125 C-64.88305542 -3.92221424 -56.51499296 -8.71835071 -47.3515625 -10.8671875 C-30.37482265 -12.62045282 -13.74194441 -11.06122419 0 0 Z M-37.12109375 40.12890625 C-39.70942282 43.98900946 -39.86431791 48.32255879 -39.25 52.8125 C-37.98061576 55.49870182 -37.98061576 55.49870182 -35.25 56.8125 C-31.07894112 57.48951888 -27.49837699 57.30604439 -23.5625 55.75 C-22.799375 55.110625 -22.03625 54.47125 -21.25 53.8125 C-20.71117187 53.38324219 -20.17234375 52.95398438 -19.6171875 52.51171875 C-16.61756218 49.700442 -15.38139883 47.69202441 -14.765625 43.5703125 C-14.36925393 37.42009316 -14.36925393 37.42009316 -16.6171875 31.94921875 C-23.91047234 26.87183624 -32.70942394 34.73152275 -37.12109375 40.12890625 Z " fill="#FEFEFE" transform="translate(449.25,88.1875)"/>
<path d="M0 0 C0.00546844 1.18604073 0.00546844 1.18604073 0.01104736 2.39604187 C0.04894956 9.85584447 0.10582677 17.31514888 0.18390274 24.77463055 C0.22337442 28.60945509 0.2555641 32.44405013 0.27099609 36.27905273 C0.28616521 39.98166097 0.32061388 43.68363825 0.36830902 47.38596535 C0.38312045 48.79685792 0.39104089 50.20784059 0.39188385 51.61881065 C0.39425557 53.59843867 0.42363126 55.57797812 0.45410156 57.55737305 C0.46298401 58.68322311 0.47186646 59.80907318 0.48101807 60.96903992 C1.11309639 64.66050594 2.41994252 66.33485568 5 69 C8.06429776 70.53214888 10.6165642 70.22938548 14 70 C18.59485903 68.07657064 20.59320916 65.29028512 23 61 C23.38362228 58.27591989 23.56319156 55.97050153 23.53125 53.2578125 C23.5350769 52.53061005 23.53890381 51.80340759 23.54284668 51.0541687 C23.54555588 49.52291471 23.53826426 47.99161366 23.52148438 46.46044922 C23.50011892 44.13792687 23.52128354 41.81851899 23.546875 39.49609375 C23.58282534 28.64153902 23.58282534 28.64153902 19 19 C16.65994749 17.54078215 14.67029851 16.82163031 12 16 C12 15.34 12 14.68 12 14 C12.70382813 13.84144531 13.40765625 13.68289062 14.1328125 13.51953125 C25.72508989 10.78036388 36.5876508 7.18742993 46.890625 1.13671875 C49 0 49 0 51 0 C51.00586624 0.87616974 51.01173248 1.75233948 51.01777649 2.65505981 C51.0757498 10.92384274 51.14785316 19.19235688 51.23571491 27.46087837 C51.28038721 31.71152973 51.31965013 35.96208594 51.34643555 40.21289062 C51.37250005 44.31739652 51.41292439 48.42153566 51.46318626 52.52581406 C51.47983377 54.08939924 51.49136122 55.65304783 51.49761391 57.21670914 C51.50727838 59.41195103 51.53536356 61.60625912 51.56762695 63.80126953 C51.57873001 65.04925323 51.58983307 66.29723694 51.60127258 67.58303833 C52.04269764 71.3659046 52.96493775 73.79196687 55 77 C58.06361777 78.43968727 58.06361777 78.43968727 61 79 C59.87654165 82.37037506 59.556887 82.54920242 56.61328125 84.15625 C55.92169922 84.53910156 55.23011719 84.92195313 54.51757812 85.31640625 C53.78990234 85.70699219 53.06222656 86.09757812 52.3125 86.5 C51.60416016 86.89058594 50.89582031 87.28117187 50.16601562 87.68359375 C36.89190636 94.96413013 36.89190636 94.96413013 31 94 C25.2528204 88.5082506 23.80977395 83.44096873 23.375 75.6875 C23.30023438 74.43324219 23.22546875 73.17898437 23.1484375 71.88671875 C23.09945312 70.93410156 23.05046875 69.98148437 23 69 C22.69819824 69.65073486 22.39639648 70.30146973 22.08544922 70.97192383 C20.7011224 73.92819783 19.28853088 76.87008533 17.875 79.8125 C17.400625 80.83666016 16.92625 81.86082031 16.4375 82.91601562 C12.81120795 90.38911749 12.81120795 90.38911749 9.12109375 93.16796875 C5.43939365 94.14944825 1.97765516 94.53607095 -1.8125 94.5 C-2.87090088 94.49033203 -2.87090088 94.49033203 -3.95068359 94.48046875 C-11.19480128 94.22728276 -15.8522399 92.32529104 -20.80078125 87.09765625 C-26.41451509 80.11733326 -27.2883466 73.64482524 -27.30859375 64.921875 C-27.33376076 62.93619507 -27.35915868 60.95051806 -27.38476562 58.96484375 C-27.41342616 55.860197 -27.43746603 52.75560096 -27.45629883 49.65087891 C-27.47811929 46.63677749 -27.51757426 43.62326775 -27.55859375 40.609375 C-27.55876747 39.23854767 -27.55876747 39.23854767 -27.5589447 37.84002686 C-27.65207021 31.69057915 -28.26245496 25.59392184 -31 20 C-33.8951073 17.39797944 -36.15117606 16.53455888 -40 16 C-40 15.34 -40 14.68 -40 14 C-39.030625 13.79246094 -38.06125 13.58492187 -37.0625 13.37109375 C-25.53470381 10.76986816 -15.17379808 6.68770182 -4.6640625 1.28515625 C-2 0 -2 0 0 0 Z " fill="#FEFEFE" transform="translate(225,77)"/>
<path d="M0 0 C3.25640926 1.79759322 5.42642427 4.10222929 7.4375 7.25 C8.52882063 12.5853453 8.0588954 17.28385918 5.1875 21.9375 C0.96202913 25.92151539 -2.76753173 26.5495483 -8.453125 26.45703125 C-12.66704744 25.70085192 -15.37716076 23.2965961 -18 20 C-19.45865112 15.62404663 -19.83479492 11.40897962 -18.31640625 7.02734375 C-16.75640443 3.97854352 -15.04914582 2.03657364 -12.3125 0 C-7.90589338 -1.33029634 -4.41803725 -1.29616835 0 0 Z " fill="#FDFDFD" transform="translate(492,145)"/>
</svg>
